<svg xmlns="http://www.w3.org/2000/svg" viewBox="0 0 525.52 181.08"><defs><style>.cls-1{fill:#036eb8;}.cls-2{fill:#fff;}.cls-3{fill:#231815;}</style></defs><g id="レイヤー_2" data-name="レイヤー 2"><g id="レイヤー_1-2" data-name="レイヤー 1"><polygon class="cls-1" points="183.21 13.38 188.37 0 69.7 0 64.55 13.38 183.21 13.38"/><polygon class="cls-1" points="57.07 32.83 54.18 40.34 172.84 40.34 175.73 32.83 57.07 32.83"/><polygon class="cls-1" points="167.65 53.81 170.54 46.31 51.88 46.31 48.99 53.81 167.65 53.81"/><polygon class="cls-1" points="46.69 59.78 0 181.08 118.66 181.08 165.35 59.78 46.69 59.78"/><polygon class="cls-1" points="62.25 19.36 59.36 26.86 178.03 26.86 180.92 19.36 62.25 19.36"/><path class="cls-2" d="M100.89,154.06H58.64c-2.91,0-3.69-1.08-2.63-3.64l2.4-5.79c1.06-2.56,2.73-3.63,5.64-3.63h37.81c4.6,0,5.85-.81,7.47-4.72l3.23-7.81c1.62-3.91,1-4.71-3.56-4.71H80.38c-11.49,0-15.9-2.29-10.93-14.28l6.3-15.22C80.71,82.27,87,80,98.5,80h41.95c2.91,0,3.69,1.08,2.63,3.64l-2.46,5.92c-1.06,2.56-2.73,3.64-5.64,3.64H97.32c-4.59,0-5.84.81-7.46,4.72L86.51,106c-1.39,3.36-1.18,4.71,2.19,4.71h30.15c11.49,0,15.9,2.29,10.93,14.28l-6.13,14.81C118.68,151.77,112.38,154.06,100.89,154.06Z"/><path class="cls-3" d="M189.38,154.06h-37.2c-11.48,0-15.89-2.29-10.93-14.28L148.62,122c5-12,11.27-14.27,22.75-14.27h38.27l4.07-9.83c1.62-3.91,1-4.72-3.56-4.72H166.37c-2.91,0-3.69-1.08-2.63-3.64l2.46-5.92c1.06-2.56,2.73-3.64,5.64-3.64h48.22C231.54,80,236,82.27,231,94.26l-18.85,45.52C207.17,151.77,200.87,154.06,189.38,154.06Zm8.44-17.78,6.36-15.35h-34c-4.59,0-5.85.81-7.46,4.71l-4.41,10.64c-1.62,3.91-1,4.72,3.56,4.72h28.47C195,141,196.2,140.19,197.82,136.28Z"/><path class="cls-3" d="M262.23,150.42c-1.06,2.56-2.73,3.64-5.64,3.64H244.35c-11.49,0-15.9-2.29-10.93-14.28L270.62,50c1.06-2.56,2.73-3.64,5.64-3.64h7.5c2.91,0,3.69,1.08,2.63,3.64l-35.75,86.33c-1.62,3.91-1,4.72,3.56,4.72H262c2.91,0,3.69,1.07,2.63,3.63Z"/><path class="cls-3" d="M327.78,154.06h-37.2c-11.48,0-15.89-2.29-10.93-14.28L287,122c5-12,11.27-14.27,22.75-14.27H348l4.07-9.83c1.62-3.91,1-4.72-3.56-4.72H304.77c-2.91,0-3.69-1.08-2.63-3.64l2.46-5.92c1.06-2.56,2.73-3.64,5.64-3.64h48.22c11.48,0,15.89,2.29,10.93,14.28l-18.85,45.52C345.57,151.77,339.27,154.06,327.78,154.06Zm8.44-17.78,6.36-15.35h-34c-4.59,0-5.85.81-7.46,4.71l-4.41,10.64c-1.62,3.91-1,4.72,3.56,4.72h28.47C333.35,141,334.6,140.19,336.22,136.28Z"/><path class="cls-3" d="M383.18,150.42c-1.06,2.56-2.73,3.64-5.64,3.64H370c-2.91,0-3.69-1.08-2.63-3.64l23.26-56.16c5-12,11.27-14.28,22.75-14.28h30.32c2.91,0,3.68,1.08,2.62,3.64l-2.45,5.92c-1.06,2.56-2.73,3.64-5.64,3.64H412.4c-4.6,0-5.85.81-7.47,4.72Z"/><path class="cls-3" d="M450.66,177.5a7.82,7.82,0,0,1-7,3.5h-5.51c-2.76,0-3.33-1.21-1.61-3.5L454,154.19l.1-70.84c0-2.16,1.4-3.37,4.15-3.37h8.42c3.06,0,4.2.94,4.27,3.37l-.2,49.3,37.81-49.17a7.8,7.8,0,0,1,7-3.5H523c2.75,0,3.17,1.21,1.46,3.5Z"/></g></g></svg>